<svg xmlns="http://www.w3.org/2000/svg" xmlns:xlink="http://www.w3.org/1999/xlink" width="500" zoomAndPan="magnify" viewBox="0 0 375 374.999991" height="500" preserveAspectRatio="xMidYMid meet" version="1.0"><defs><g/><clipPath id="a21841d222"><path d="M 69.164062 69.164062 L 305.824219 69.164062 L 305.824219 305.824219 L 69.164062 305.824219 Z M 69.164062 69.164062 " clip-rule="nonzero"/></clipPath><clipPath id="f8fae550d7"><path d="M 187.496094 69.164062 C 122.144531 69.164062 69.164062 122.144531 69.164062 187.496094 C 69.164062 252.847656 122.144531 305.824219 187.496094 305.824219 C 252.847656 305.824219 305.824219 252.847656 305.824219 187.496094 C 305.824219 122.144531 252.847656 69.164062 187.496094 69.164062 Z M 187.496094 69.164062 " clip-rule="nonzero"/></clipPath><clipPath id="630734f124"><path d="M 141.984375 123.019531 L 218.484375 123.019531 L 218.484375 238.519531 L 141.984375 238.519531 Z M 141.984375 123.019531 " clip-rule="nonzero"/></clipPath></defs><g clip-path="url(#a21841d222)"><g clip-path="url(#f8fae550d7)"><path stroke-linecap="butt" transform="matrix(0.75, 0, 0, 0.75, 69.165996, 69.165991)" fill="none" stroke-linejoin="miter" d="M 157.773474 -0.00257194 C 70.638052 -0.00257194 -0.00257794 70.638058 -0.00257794 157.77348 C -0.00257794 244.908902 70.638052 315.544324 157.773474 315.544324 C 244.908896 315.544324 315.544318 244.908902 315.544318 157.77348 C 315.544318 70.638058 244.908896 -0.00257194 157.773474 -0.00257194 Z M 157.773474 -0.00257194 " stroke="#ffffff" stroke-width="10" stroke-opacity="1" stroke-miterlimit="4"/></g></g><g clip-path="url(#630734f124)"><path fill="#ffffff" d="M 216.507812 139.078125 L 201.835938 139.078125 L 201.835938 125.347656 C 201.835938 124.078125 200.804688 123.046875 199.535156 123.046875 C 198.261719 123.046875 197.230469 124.078125 197.230469 125.347656 L 197.230469 139.078125 L 172.484375 139.078125 L 172.484375 125.347656 C 172.484375 124.078125 171.453125 123.046875 170.183594 123.046875 C 168.910156 123.046875 167.878906 124.078125 167.878906 125.347656 L 167.878906 139.078125 L 153.203125 139.078125 C 151.933594 139.078125 150.902344 140.109375 150.902344 141.378906 L 150.902344 160.511719 C 150.902344 167.96875 153.167969 175.195312 157.277344 180.863281 C 161 185.988281 166.015625 189.570312 171.558594 191.09375 L 171.558594 200.074219 C 171.558594 201.347656 172.589844 202.378906 173.859375 202.378906 L 181.910156 202.378906 L 181.910156 208.929688 L 144.285156 208.929688 C 143.015625 208.929688 141.984375 209.960938 141.984375 211.230469 C 141.984375 212.5 143.015625 213.53125 144.285156 213.53125 L 181.910156 213.53125 L 181.910156 223.539062 C 181.910156 231.59375 188.464844 238.144531 196.519531 238.144531 L 197.613281 238.144531 C 205.667969 238.144531 212.21875 231.59375 212.21875 223.539062 C 212.21875 215.484375 205.667969 208.929688 197.613281 208.929688 L 186.515625 208.929688 L 186.515625 202.378906 L 195.851562 202.378906 C 197.125 202.378906 198.15625 201.347656 198.15625 200.074219 L 198.15625 191.089844 C 203.699219 189.566406 208.714844 185.984375 212.433594 180.859375 C 216.546875 175.195312 218.8125 167.96875 218.8125 160.511719 L 218.8125 141.378906 C 218.8125 140.109375 217.78125 139.078125 216.507812 139.078125 Z M 197.613281 213.53125 C 203.128906 213.53125 207.617188 218.019531 207.617188 223.535156 C 207.617188 229.050781 203.128906 233.539062 197.613281 233.539062 L 196.519531 233.539062 C 191.003906 233.539062 186.515625 229.050781 186.515625 223.535156 L 186.515625 213.53125 Z M 214.207031 160.511719 C 214.207031 167.003906 212.253906 173.273438 208.707031 178.15625 C 205.265625 182.898438 200.550781 186.039062 195.425781 187 C 194.339844 187.207031 193.550781 188.15625 193.550781 189.261719 L 193.550781 197.773438 L 176.160156 197.773438 L 176.160156 189.261719 C 176.160156 188.15625 175.371094 187.207031 174.28125 187 C 169.160156 186.039062 164.445312 182.902344 161.003906 178.160156 C 157.457031 173.273438 155.503906 167.003906 155.503906 160.511719 L 155.503906 143.683594 L 214.203125 143.683594 L 214.203125 160.511719 Z M 214.207031 160.511719 " fill-opacity="1" fill-rule="nonzero"/></g><g fill="#ffffff" fill-opacity="1"><g transform="translate(94.225502, 236.482795)"><g><path d="M 6.453125 10.859375 C 10.171875 16.765625 11.859375 17.28125 11.859375 17.28125 L 16.265625 14.5 L 15.640625 13.5 C 12.4375 15.109375 10.40625 14.96875 8.1875 11.4375 C 5.515625 7.203125 6.65625 3.875 13.375 -0.34375 C 20.078125 -4.578125 23.484375 -4.3125 26.125 -0.109375 C 28.59375 3.796875 28.109375 5.21875 25.171875 7.484375 L 25.796875 8.484375 L 30.90625 5.265625 L 26.375 -1.9375 C 22.40625 -8.25 17.1875 -8.84375 10.625 -4.703125 C 4.078125 -0.578125 2.40625 4.421875 6.453125 10.859375 Z M 6.453125 10.859375 "/></g></g></g><g fill="#ffffff" fill-opacity="1"><g transform="translate(107.391095, 256.888812)"><g><path d="M 7.078125 7.546875 C 11.265625 11.75 15.171875 11.65625 19.3125 7.53125 C 23.4375 3.40625 23.53125 -0.5 19.34375 -4.703125 C 15.125 -8.921875 11.21875 -8.828125 7.09375 -4.703125 C 2.953125 -0.578125 2.859375 3.328125 7.078125 7.546875 Z M 7.90625 6.734375 C 6 4.828125 6.578125 2.765625 10.578125 -1.21875 C 14.578125 -5.21875 16.625 -5.78125 18.53125 -3.875 C 20.40625 -1.984375 19.828125 0.03125 15.828125 4.03125 C 11.828125 8.015625 9.78125 8.625 7.90625 6.734375 Z M 7.90625 6.734375 "/></g></g></g><g fill="#ffffff" fill-opacity="1"><g transform="translate(122.63718, 272.171965)"><g><path d="M 8.96875 5.71875 L 9.59375 4.734375 C 8.3125 3.90625 8.171875 3.3125 8.953125 2.078125 L 15.640625 -8.421875 L 18.34375 -6.703125 C 19.65625 -5.859375 20 -4.65625 19.078125 -3.1875 L 12.125 7.71875 L 17.9375 11.421875 L 18.5625 10.4375 C 17.21875 9.578125 17.109375 9.078125 17.9375 7.765625 L 22.46875 0.65625 C 24.421875 -2.390625 23.65625 -4.6875 20.453125 -6.734375 L 10.4375 -13.109375 L 9.8125 -12.125 C 11.109375 -11.3125 11.25 -10.71875 10.484375 -9.5 L 4.796875 -0.578125 C 4.015625 0.65625 3.40625 0.78125 2.109375 -0.03125 L 1.484375 0.953125 Z M 8.96875 5.71875 "/></g></g></g><g fill="#ffffff" fill-opacity="1"><g transform="translate(142.668387, 284.629573)"><g><path d="M 19.875 -1.578125 C 21.859375 -6.96875 20.53125 -10.5625 15.171875 -12.53125 C 9.765625 -14.515625 6.453125 -12.6875 4.4375 -7.25 C 2.453125 -1.859375 4 1.828125 9.875 3.984375 C 14.765625 5.78125 16.53125 5.09375 16.53125 5.09375 L 18.109375 0.78125 L 17.03125 0.375 C 15.671875 3.46875 14.078125 4.296875 11.203125 3.234375 C 7.703125 1.953125 7.25 -0.359375 8.890625 -5 L 19.65625 -1.03125 C 19.703125 -1.203125 19.8125 -1.390625 19.875 -1.578125 Z M 14.765625 -11.453125 C 16.953125 -10.65625 17.265625 -8.984375 15.453125 -3.84375 L 9.296875 -6.109375 C 11.28125 -11.34375 12.53125 -12.28125 14.765625 -11.453125 Z M 14.765625 -11.453125 "/></g></g></g><g fill="#ffffff" fill-opacity="1"><g transform="translate(161.960382, 291.614044)"><g><path d="M 9.828125 1.890625 C 15 2.71875 16.65625 1.8125 16.65625 1.8125 L 17.390625 -2.84375 L 16.203125 -3.03125 C 15.546875 0.375 14.125 1.40625 11.359375 0.96875 C 8.453125 0.515625 6.921875 -1.4375 7.8125 -7.046875 C 8.6875 -12.5625 10.65625 -14 13.65625 -13.53125 C 16.8125 -13.03125 17.59375 -12.15625 17.140625 -8.5625 L 18.28125 -8.375 L 19.140625 -13.84375 L 11.46875 -15.0625 C 6.59375 -15.84375 3.828125 -13.46875 2.9375 -7.8125 C 2.03125 -2.140625 4.28125 1.015625 9.828125 1.890625 Z M 9.828125 1.890625 "/></g></g></g><g fill="#ffffff" fill-opacity="1"><g transform="translate(181.259772, 294.392366)"><g><path d="M 12.625 -16.703125 L 8.0625 -16.6875 L 8.046875 -21.75 L 6.875 -21.75 C 6.890625 -18.625 5.6875 -17.484375 3.09375 -16.6875 L 0.28125 -16.671875 L 0.28125 -15.46875 L 3.09375 -15.484375 L 3.125 -5.015625 C 3.140625 -1.8125 5.0625 -0.015625 8.140625 -0.015625 L 12.671875 -0.03125 L 12.671875 -1.203125 L 10.671875 -1.203125 C 9.109375 -1.203125 8.109375 -2.109375 8.09375 -4.15625 L 8.0625 -15.484375 L 12.625 -15.5 Z M 12.625 -16.703125 "/></g></g></g><g fill="#ffffff" fill-opacity="1"><g transform="translate(194.825167, 294.619431)"><g><path d="M 15.015625 -14.421875 C 14.46875 -17.578125 12.265625 -19.03125 9.234375 -18.515625 L 0.453125 -17 L 1.203125 -12.6875 L 2.359375 -12.890625 C 1.9375 -15.28125 2.4375 -16.15625 5.859375 -16.734375 C 8.125 -17.125 9.6875 -16.25 10.140625 -13.640625 L 10.4375 -11.9375 L 6.171875 -11.203125 C 2.15625 -10.515625 0.203125 -8.65625 0.828125 -4.984375 C 1.46875 -1.265625 3.65625 -0.28125 7.390625 -0.9375 C 10.40625 -1.453125 11.890625 -2.6875 12.09375 -5.15625 L 12.234375 -4.34375 C 12.46875 -2.984375 13.46875 -2.3125 14.8125 -2.546875 L 18.921875 -3.25 L 18.71875 -4.40625 C 17.15625 -4.140625 16.71875 -4.4375 16.453125 -5.96875 Z M 8.859375 -2.90625 C 7.265625 -2.625 6.140625 -3.328125 5.75 -5.625 C 5.265625 -8.421875 6.09375 -10.015625 8.390625 -10.421875 L 10.625 -10.796875 L 11.078125 -8.125 C 11.640625 -4.90625 11 -3.28125 8.859375 -2.90625 Z M 8.859375 -2.90625 "/></g></g></g><g fill="#ffffff" fill-opacity="1"><g transform="translate(215.996638, 291.091341)"><g><path d="M 4.59375 -27.234375 L -3.5625 -23.828125 L -3.109375 -22.75 C -1.78125 -23.296875 -0.78125 -23.515625 0.03125 -23.375 L 1.78125 -4.34375 C 1.9375 -2.53125 1.640625 -1.953125 -0.15625 -1.203125 L 0.296875 -0.125 L 6.484375 -2.71875 L 6.03125 -3.796875 C 3.890625 -2.890625 3.0625 -3.3125 2.84375 -5.921875 L 2.5625 -8.875 L 10.5625 -12.234375 L 12.484375 -9.96875 C 14.203125 -7.984375 13.90625 -7.09375 11.71875 -6.1875 L 12.171875 -5.109375 L 22.203125 -9.3125 L 21.75 -10.390625 C 19.96875 -9.640625 19.3125 -9.828125 18.125 -11.203125 Z M 1.25 -22.859375 C 1.765625 -22.546875 2.25 -22.0625 2.796875 -21.375 L 9.78125 -13.171875 L 2.453125 -10.109375 Z M 1.25 -22.859375 "/></g></g></g><g fill="#ffffff" fill-opacity="1"><g transform="translate(239.187304, 280.938533)"><g><path d="M 0.3125 -19.21875 C 2.921875 -21.0625 4.09375 -20.984375 6.265625 -18.09375 L 7.21875 -18.765625 L 4.015625 -23.28125 L -2.328125 -18.796875 C -6.34375 -15.9375 -6.6875 -12.3125 -3.359375 -7.640625 C -0.109375 -3.03125 3.625 -2.28125 8.109375 -5.34375 L 9 -4.078125 L 9.453125 -4.40625 C 10.390625 -5.0625 11.28125 -4.96875 11.9375 -4.046875 C 12.59375 -3.125 12.421875 -2.203125 11.484375 -1.546875 C 10.59375 -0.90625 9.640625 -1.03125 8.984375 -1.953125 L 8.03125 -1.28125 C 9.109375 0.25 10.71875 0.40625 12.15625 -0.609375 C 13.640625 -1.65625 13.953125 -3.1875 12.875 -4.71875 C 11.921875 -6.078125 10.578125 -6.34375 9.234375 -5.65625 L 9 -5.984375 C 12.6875 -8.734375 13.171875 -10.34375 13.171875 -10.34375 L 10.453125 -14.1875 L 9.46875 -13.5 C 11.375 -10.59375 11.078125 -8.859375 8.796875 -7.25 C 6.40625 -5.546875 3.9375 -5.875 0.671875 -10.5 C -2.5625 -15.0625 -2.15625 -17.46875 0.3125 -19.21875 Z M 0.3125 -19.21875 "/></g></g></g><g fill="#ffffff" fill-opacity="1"><g transform="translate(255.355477, 269.472982)"><g><path d="M -10 -18.125 C -10.515625 -18.59375 -10.578125 -19.171875 -10.03125 -19.75 C -9.734375 -20.078125 -9.34375 -20.28125 -8.75 -20.515625 L -6.046875 -21.53125 C -5.3125 -21.84375 -4.78125 -22.140625 -4.421875 -22.53125 C -3.328125 -23.6875 -3.4375 -24.90625 -4.421875 -25.84375 L -5.0625 -26.4375 L -5.859375 -25.59375 L -5.21875 -25 C -4.640625 -24.453125 -4.671875 -23.96875 -5.265625 -23.34375 C -5.53125 -23.078125 -6 -22.8125 -6.453125 -22.609375 L -9.078125 -21.640625 C -9.953125 -21.28125 -10.390625 -21.046875 -10.875 -20.53125 C -11.875 -19.46875 -11.796875 -18.21875 -10.796875 -17.28125 L -10.234375 -16.75 L -9.4375 -17.59375 Z M 3.3125 -20.546875 C 0.984375 -22.75 -1.640625 -22.578125 -3.75 -20.34375 L -9.859375 -13.859375 L -6.671875 -10.859375 L -5.875 -11.71875 C -7.640625 -13.390625 -7.75 -14.359375 -5.375 -16.890625 C -3.796875 -18.5625 -2.03125 -18.8125 -0.109375 -17 L 1.15625 -15.8125 L -1.8125 -12.65625 C -4.609375 -9.703125 -5.046875 -7.046875 -2.328125 -4.484375 C 0.40625 -1.90625 2.734375 -2.4375 5.328125 -5.203125 C 7.4375 -7.421875 7.875 -9.296875 6.578125 -11.390625 L 7.171875 -10.828125 C 8.171875 -9.875 9.375 -9.953125 10.3125 -10.9375 L 13.171875 -13.984375 L 12.3125 -14.78125 C 11.21875 -13.609375 10.703125 -13.59375 9.5625 -14.671875 Z M 5.34375 -7.65625 C 4.234375 -6.484375 2.90625 -6.34375 1.203125 -7.9375 C -0.859375 -9.890625 -1.15625 -11.671875 0.4375 -13.359375 L 2 -15.015625 L 3.96875 -13.15625 C 6.34375 -10.921875 6.828125 -9.234375 5.34375 -7.65625 Z M 5.34375 -7.65625 "/></g></g></g><g fill="#ffffff" fill-opacity="1"><g transform="translate(269.889835, 253.927655)"><g><path d="M 5.671875 -8.65625 C 8.765625 -13.703125 7.75 -17.484375 2.765625 -20.53125 C -2.203125 -23.578125 -6.03125 -22.734375 -9.125 -17.6875 C -12.234375 -12.59375 -11.21875 -8.8125 -6.25 -5.765625 C -1.265625 -2.71875 2.5625 -3.5625 5.671875 -8.65625 Z M 4.6875 -9.265625 C 3.28125 -6.953125 1.125 -7.046875 -3.6875 -9.984375 C -8.515625 -12.9375 -9.53125 -14.765625 -8.125 -17.078125 C -6.734375 -19.34375 -4.640625 -19.265625 0.1875 -16.3125 C 5 -13.375 6.078125 -11.53125 4.6875 -9.265625 Z M 4.6875 -9.265625 "/></g></g></g></svg>